<svg xmlns="http://www.w3.org/2000/svg" xmlns:xlink="http://www.w3.org/1999/xlink" width="1080" zoomAndPan="magnify" viewBox="0 0 810 809.999993" height="1080" preserveAspectRatio="xMidYMid meet" version="1.0"><defs><clipPath id="6c2614b8e2"><path d="M 283.5 283.5 L 526.5 283.5 L 526.5 526.5 L 283.5 526.5 Z M 283.5 283.5 " clip-rule="nonzero"/></clipPath><clipPath id="350d9e1c0e"><path d="M 321.75 283.5 L 488.25 283.5 C 498.394531 283.5 508.125 287.53125 515.296875 294.703125 C 522.46875 301.875 526.5 311.605469 526.5 321.75 L 526.5 488.25 C 526.5 498.394531 522.46875 508.125 515.296875 515.296875 C 508.125 522.46875 498.394531 526.5 488.25 526.5 L 321.75 526.5 C 311.605469 526.5 301.875 522.46875 294.703125 515.296875 C 287.53125 508.125 283.5 498.394531 283.5 488.25 L 283.5 321.75 C 283.5 311.605469 287.53125 301.875 294.703125 294.703125 C 301.875 287.53125 311.605469 283.5 321.75 283.5 Z M 321.75 283.5 " clip-rule="nonzero"/></clipPath><clipPath id="721343ecf7"><path d="M 0.5 0.5 L 243.5 0.5 L 243.5 243.5 L 0.5 243.5 Z M 0.5 0.5 " clip-rule="nonzero"/></clipPath><clipPath id="1c3dd74180"><path d="M 38.75 0.5 L 205.25 0.5 C 215.394531 0.5 225.125 4.53125 232.296875 11.703125 C 239.46875 18.875 243.5 28.605469 243.5 38.75 L 243.5 205.25 C 243.5 215.394531 239.46875 225.125 232.296875 232.296875 C 225.125 239.46875 215.394531 243.5 205.25 243.5 L 38.75 243.5 C 28.605469 243.5 18.875 239.46875 11.703125 232.296875 C 4.53125 225.125 0.5 215.394531 0.5 205.25 L 0.5 38.75 C 0.5 28.605469 4.53125 18.875 11.703125 11.703125 C 18.875 4.53125 28.605469 0.5 38.75 0.5 Z M 38.75 0.5 " clip-rule="nonzero"/></clipPath><clipPath id="01f9fe6e3b"><rect x="0" width="244" y="0" height="244"/></clipPath></defs><g clip-path="url(#6c2614b8e2)"><g clip-path="url(#350d9e1c0e)"><g transform="matrix(1, 0, 0, 1, 283, 283)"><g clip-path="url(#01f9fe6e3b)"><g clip-path="url(#721343ecf7)"><g clip-path="url(#1c3dd74180)"><path fill="#99acff" d="M 0.5 0.5 L 243.5 0.5 L 243.5 243.5 L 0.5 243.5 Z M 0.5 0.5 " fill-opacity="1" fill-rule="nonzero"/></g></g></g></g></g></g><path fill="#1800ad" d="M 397.78125 320.140625 C 395.140625 324.1875 373.136719 359.398438 348.839844 398.480469 C 324.546875 437.390625 304.652344 470.132812 304.652344 471.015625 C 304.652344 472.070312 319.96875 472.773438 343.910156 472.773438 L 383.347656 472.773438 L 392.675781 485.976562 C 397.78125 493.195312 402.710938 499.183594 403.414062 499.183594 C 404.121094 499.183594 408.875 493.195312 413.976562 485.976562 L 422.957031 472.773438 L 462.390625 472.773438 C 488.625 472.773438 501.828125 472.070312 501.828125 471.015625 C 501.828125 469.957031 487.566406 446.367188 470.3125 418.550781 C 453.0625 390.734375 431.230469 355.703125 421.902344 340.738281 C 412.394531 325.773438 404.296875 313.273438 403.589844 313.097656 C 402.886719 312.746094 400.246094 315.914062 397.78125 320.140625 Z M 436.511719 400.769531 C 454.117188 428.761719 468.203125 452.351562 467.671875 453.058594 C 467.320312 453.761719 456.230469 454.113281 443.203125 453.761719 L 419.261719 453.234375 L 417.5 444.078125 C 412.921875 419.960938 406.9375 388.445312 405.878906 381.582031 C 405.175781 377.53125 404.121094 374.1875 403.414062 374.1875 C 402.359375 374.1875 401.304688 379.292969 392.851562 426.121094 C 390.917969 436.683594 388.804688 447.246094 388.273438 449.359375 C 387.394531 453.058594 386.339844 453.234375 363.453125 453.761719 C 350.25 454.113281 339.15625 453.761719 338.804688 453.058594 C 337.925781 451.648438 401.65625 349.539062 403.414062 349.539062 C 404.121094 349.539062 419.082031 372.601562 436.511719 400.769531 Z M 436.511719 400.769531 " fill-opacity="1" fill-rule="nonzero"/></svg>